<svg width="637" height="232" viewBox="0 0 637 232" fill="none" xmlns="http://www.w3.org/2000/svg">
<path d="M136.811 82.9062C144.949 82.9062 151.361 85.0059 156.049 89.2051C160.769 93.3717 163.129 98.8405 163.129 105.611C163.129 112.415 160.769 117.883 156.049 122.018C151.361 126.152 144.949 128.219 136.811 128.219H124.799V143.99L132.416 145.455V154H102.973V145.455L110.541 143.99V92.9648L102.973 91.5V82.9062H110.541H136.811ZM124.799 117.232H136.811C140.782 117.232 143.777 116.158 145.795 114.01C147.846 111.829 148.871 109.062 148.871 105.709C148.871 102.291 147.846 99.4753 145.795 97.2617C143.777 95.0156 140.782 93.8926 136.811 93.8926H124.799V117.232ZM205.023 147.311C203.331 149.785 201.231 151.689 198.725 153.023C196.251 154.358 193.419 155.025 190.229 155.025C184.662 155.025 180.3 153.251 177.143 149.703C173.985 146.122 172.406 140.572 172.406 133.053V111.227L166.596 109.762V101.168H172.406H186.664V133.15C186.664 136.992 187.299 139.758 188.568 141.451C189.87 143.111 191.791 143.941 194.33 143.941C196.576 143.941 198.513 143.583 200.141 142.867C201.801 142.118 203.152 141.061 204.193 139.693V111.227L197.943 109.762V101.168H204.193H218.451V143.99L224.848 145.455V154H205.951L205.023 147.311ZM231.537 145.455L238.373 143.99V111.227L230.805 109.762V101.168H251.654L252.289 108.883C253.526 106.148 255.121 104.016 257.074 102.486C259.027 100.956 261.29 100.191 263.861 100.191C264.61 100.191 265.391 100.257 266.205 100.387C267.051 100.484 267.751 100.615 268.305 100.777L266.791 113.766L260.932 113.619C258.848 113.619 257.123 114.026 255.756 114.84C254.389 115.654 253.347 116.809 252.631 118.307V143.99L259.467 145.455V154H231.537V145.455ZM296.869 155.025C289.252 155.025 283.165 152.584 278.607 147.701C274.05 142.818 271.771 136.617 271.771 129.098V127.145C271.771 119.299 273.92 112.838 278.217 107.76C282.546 102.682 288.34 100.159 295.6 100.191C302.729 100.191 308.262 102.34 312.201 106.637C316.14 110.934 318.109 116.744 318.109 124.068V131.832H286.566L286.469 132.125C286.729 135.608 287.885 138.473 289.936 140.719C292.019 142.965 294.835 144.088 298.383 144.088C301.54 144.088 304.161 143.779 306.244 143.16C308.327 142.509 310.606 141.5 313.08 140.133L316.938 148.922C314.757 150.647 311.924 152.096 308.441 153.268C304.991 154.439 301.133 155.025 296.869 155.025ZM295.6 111.178C292.963 111.178 290.88 112.187 289.35 114.205C287.82 116.223 286.876 118.876 286.518 122.164L286.664 122.408H304.145V121.139C304.145 118.111 303.428 115.702 301.996 113.912C300.596 112.089 298.464 111.178 295.6 111.178ZM349.457 91.5L344.037 92.4766L356.635 135.104L357.514 139.01H357.807L358.637 135.201L371.283 92.4766L365.912 91.5V82.9062H391.889V91.5L385.932 92.2812L364.984 154H350.336L329.34 92.2812L323.48 91.5V82.9062H349.457V91.5ZM396.137 145.455L403.021 143.99V111.227L395.404 109.762V101.168H417.279V143.99L424.115 145.455V154H396.137V145.455ZM417.279 88.5215H403.021V77.8281H417.279V88.5215ZM479.877 129.049C479.877 136.926 478.119 143.225 474.604 147.945C471.088 152.665 466.01 155.025 459.369 155.025C456.277 155.025 453.591 154.391 451.312 153.121C449.034 151.819 447.113 149.947 445.551 147.506L444.525 154H432.221V87.8867L424.652 86.4219V77.8281H446.43V106.783C447.96 104.667 449.783 103.04 451.898 101.9C454.047 100.761 456.505 100.191 459.271 100.191C465.977 100.191 471.088 102.73 474.604 107.809C478.119 112.854 479.877 119.592 479.877 128.023V129.049ZM465.668 128.023C465.668 122.88 464.903 118.811 463.373 115.816C461.876 112.789 459.304 111.275 455.658 111.275C453.445 111.275 451.573 111.747 450.043 112.691C448.513 113.603 447.309 114.921 446.43 116.646V138.961C447.309 140.589 448.513 141.826 450.043 142.672C451.605 143.518 453.51 143.941 455.756 143.941C459.434 143.941 462.006 142.656 463.471 140.084C464.936 137.48 465.668 133.801 465.668 129.049V128.023ZM511.811 155.025C504.193 155.025 498.106 152.584 493.549 147.701C488.992 142.818 486.713 136.617 486.713 129.098V127.145C486.713 119.299 488.861 112.838 493.158 107.76C497.488 102.682 503.282 100.159 510.541 100.191C517.67 100.191 523.204 102.34 527.143 106.637C531.081 110.934 533.051 116.744 533.051 124.068V131.832H501.508L501.41 132.125C501.671 135.608 502.826 138.473 504.877 140.719C506.96 142.965 509.776 144.088 513.324 144.088C516.482 144.088 519.102 143.779 521.186 143.16C523.269 142.509 525.548 141.5 528.021 140.133L531.879 148.922C529.698 150.647 526.866 152.096 523.383 153.268C519.932 154.439 516.075 155.025 511.811 155.025ZM510.541 111.178C507.904 111.178 505.821 112.187 504.291 114.205C502.761 116.223 501.817 118.876 501.459 122.164L501.605 122.408H519.086V121.139C519.086 118.111 518.37 115.702 516.938 113.912C515.538 112.089 513.406 111.178 510.541 111.178Z" fill="#F15E24"/>
<rect x="6" y="6" width="625" height="220" stroke="#F15E24" stroke-width="12"/>
</svg>
